HIERARCHY
ROOT Hips
{
	OFFSET 0.00000 0.00000 0.00000
	CHANNELS 6 Xposition Yposition Zposition Zrotation Yrotation Xrotation 
	JOINT LHipJoint
	{
		OFFSET 0 0 0
		CHANNELS 3 Zrotation Yrotation Xrotation
		JOINT LeftUpLeg
		{
			OFFSET 1.62067 -1.77917 0.70989
			CHANNELS 3 Zrotation Yrotation Xrotation
			JOINT LeftLeg
			{
				OFFSET 2.34532 -6.44371 0.00000
				CHANNELS 3 Zrotation Yrotation Xrotation
				JOINT LeftFoot
				{
					OFFSET 2.74224 -7.53425 0.00000
					CHANNELS 3 Zrotation Yrotation Xrotation
					JOINT LeftToeBase
					{
						OFFSET 0.17032 -0.46794 2.08086
						CHANNELS 3 Zrotation Yrotation Xrotation
						End Site
						{
							OFFSET 0.00000 -0.00000 1.07476
						}
					}
				}
			}
		}
	}
	JOINT RHipJoint
	{
		OFFSET 0 0 0
		CHANNELS 3 Zrotation Yrotation Xrotation
		JOINT RightUpLeg
		{
			OFFSET -1.55811 -1.77917 0.70989
			CHANNELS 3 Zrotation Yrotation Xrotation
			JOINT RightLeg
			{
				OFFSET -2.33243 -6.40830 0.00000
				CHANNELS 3 Zrotation Yrotation Xrotation
				JOINT RightFoot
				{
					OFFSET -2.78798 -7.65993 0.00000
					CHANNELS 3 Zrotation Yrotation Xrotation
					JOINT RightToeBase
					{
						OFFSET -0.22707 -0.62388 2.04059
						CHANNELS 3 Zrotation Yrotation Xrotation
						End Site
						{
							OFFSET -0.00000 -0.00000 1.07030
						}
					}
				}
			}
		}
	}
	JOINT LowerBack
	{
		OFFSET 0 0 0
		CHANNELS 3 Zrotation Yrotation Xrotation
		JOINT Spine
		{
			OFFSET 0.02203 1.91565 0.07161
			CHANNELS 3 Zrotation Yrotation Xrotation
			JOINT Spine1
			{
				OFFSET 0.01740 1.90525 0.11636
				CHANNELS 3 Zrotation Yrotation Xrotation
				JOINT Neck
				{
					OFFSET 0 0 0
					CHANNELS 3 Zrotation Yrotation Xrotation
					JOINT Neck1
					{
						OFFSET -0.10841 1.83566 0.05067
						CHANNELS 3 Zrotation Yrotation Xrotation
						JOINT Head
						{
							OFFSET 0.06601 1.74760 -0.50505
							CHANNELS 3 Zrotation Yrotation Xrotation
							End Site
							{
								OFFSET 0.03102 1.85215 -0.17697
							}
						}
					}
				}
				JOINT LeftShoulder
				{
					OFFSET 0 0 0
					CHANNELS 3 Zrotation Yrotation Xrotation
					JOINT LeftArm
					{
						OFFSET 2.87059 1.35470 0.16111
						CHANNELS 3 Zrotation Yrotation Xrotation
						JOINT LeftForeArm
						{
							OFFSET 5.43592 -0.00000 0.00000
							CHANNELS 3 Zrotation Yrotation Xrotation
							JOINT LeftHand
							{
								OFFSET 3.25460 -0.00000 0.00000
								CHANNELS 3 Zrotation Yrotation Xrotation
								JOINT LeftFingerBase
								{
									OFFSET 0 0 0
									CHANNELS 3 Zrotation Yrotation Xrotation
									JOINT LeftHandIndex1
									{
										OFFSET 0.49824 -0.00000 0.00000
										CHANNELS 3 Zrotation Yrotation Xrotation
										End Site
										{
											OFFSET 0.40170 -0.00000 0.00000
										}
									}
								}
								JOINT LThumb
								{
									OFFSET 0 0 0
									CHANNELS 3 Zrotation Yrotation Xrotation
									End Site
									{
										OFFSET 0.40783 -0.00000 0.40783
									}
								}
							}
						}
					}
				}
				JOINT RightShoulder
				{
					OFFSET 0 0 0
					CHANNELS 3 Zrotation Yrotation Xrotation
					JOINT RightArm
					{
						OFFSET -2.86643 1.23488 0.45957
						CHANNELS 3 Zrotation Yrotation Xrotation
						JOINT RightForeArm
						{
							OFFSET -5.33830 -0.00000 0.00000
							CHANNELS 3 Zrotation Yrotation Xrotation
							JOINT RightHand
							{
								OFFSET -3.23148 -0.00000 0.00000
								CHANNELS 3 Zrotation Yrotation Xrotation
								JOINT RightFingerBase
								{
									OFFSET 0 0 0
									CHANNELS 3 Zrotation Yrotation Xrotation
									JOINT RightHandIndex1
									{
										OFFSET -0.46364 -0.00000 0.00000
										CHANNELS 3 Zrotation Yrotation Xrotation
										End Site
										{
											OFFSET -0.37380 -0.00000 0.00000
										}
									}
								}
								JOINT RThumb
								{
									OFFSET 0 0 0
									CHANNELS 3 Zrotation Yrotation Xrotation
									End Site
									{
										OFFSET -0.37951 -0.00000 0.37951
									}
								}
							}
						}
					}
				}
			}
		}
	}
}
MOTION
Frames: 6
Frame Time: 0.0408163
0.00 0.00 0.00 -139.6750 -6.7345 255.3710 0.0000 0.0000 0.0000 19.6496 -0.6828 -96.3609 9.1829 16.9240 56.7204 3.2432 14.4880 -41.3035 0.5206 4.6241 12.8394 0.0000 0.0000 0.0000 47.9060 -4.2275 -38.2689 -6.0995 -14.5240 45.3796 0.1117 -9.1573 -10.7814 -2.5220 9.8777 -28.5816 -17.8323 -4.0546 23.3421 -10.5408 -10.3784 -1.7132 1.1574 -3.2540 -13.3187 0.2336 4.4187 -25.9429 11.0859 5.5569 2.8751 4.1776 3.9616 4.6214 -0.0000 -0.0000 0.0000 24.3591 -18.7915 -35.5832 15.8399 -25.3031 -3.5773 -0.0000 0.0000 -49.1367 62.1220 -22.9026 -36.3415 -7.1250 0.0000 -0.0000 18.9763 -10.1473 -23.2139 -0.0000 -0.0000 0.0000 6.5941 -27.6867 -27.4573 -15.1262 24.3217 -3.2778 0.0000 -0.0000 -10.6643 -59.8383 -58.0507 55.5941 7.1250 -0.0000 -0.0000 179.5363 -12.5822 -0.3515
0.00 0.00 0.00 -136.0830 43.1806 241.7760 0.0000 0.0000 0.0000 -1.5986 1.4470 -80.4936 11.6776 18.2510 64.9633 0.8620 21.6947 -35.8237 0.8375 5.8377 16.3144 0.0000 0.0000 0.0000 43.2859 -0.5693 -35.1788 -8.0343 -16.1444 52.6861 0.3617 -15.2513 -17.3050 -1.3388 7.3261 -20.6851 -7.7833 0.4907 11.4680 -9.3144 -0.5987 -1.4400 -5.5878 0.0486 -8.0586 -3.7191 4.0199 -25.1761 8.4150 5.1253 17.7912 4.3415 3.2066 9.4050 -0.0000 -0.0000 0.0000 -27.8859 -14.6791 -6.7760 20.3179 -31.0234 -5.6943 -0.0000 0.0000 -33.1430 47.2370 -16.8787 -17.4298 -7.1250 0.0000 -0.0000 12.3043 6.3570 -11.1324 -0.0000 -0.0000 0.0000 19.2726 -8.0357 -10.0836 -20.9709 31.7943 -6.0346 0.0000 -0.0000 -1.1893 -42.6528 -45.5617 33.3360 7.1250 -0.0000 -0.0000 1.2040 5.8369 178.9245
0.00 0.00 0.00 -138.4180 60.1904 242.2400 0.0000 0.0000 0.0000 -13.3720 6.4434 -78.4866 9.4371 17.0809 57.5899 -0.3494 17.5441 -21.4509 0.2818 3.4139 9.4334 0.0000 0.0000 0.0000 33.7195 3.2659 -32.7556 -5.4395 -13.8622 42.6884 -0.7641 -17.0665 -30.1029 -0.1510 2.5041 -6.9010 -3.9383 1.0483 3.4734 -7.3828 1.0759 -4.0407 -5.6708 0.6582 -6.1155 -8.9263 0.3044 -20.2887 10.9802 0.7795 21.7125 5.5875 1.0528 10.1819 0.0000 0.0000 0.0000 -37.8178 -11.9275 5.3924 29.7251 -40.6566 -11.2301 -0.0000 0.0000 -27.0940 48.8343 -22.9404 -24.0260 -7.1250 0.0000 -0.0000 11.7425 -2.1579 -12.4366 0.0000 0.0000 0.0000 31.2757 -4.7053 -0.1154 -31.7857 42.3757 -12.5962 0.0000 0.0000 3.7107 -41.9530 -43.6740 31.8301 7.1250 -0.0000 -0.0000 1.6213 7.9681 178.6185
0.00 0.00 0.00 -8.9685 68.8749 363.7960 0.0000 0.0000 0.0000 -8.9734 -12.7318 -28.0424 6.5745 14.9628 47.2460 2.1917 -11.4141 -26.6667 0.5980 -4.9505 -13.7675 0.0000 0.0000 0.0000 13.8911 18.1864 -26.3006 -4.8368 -13.1976 40.1129 -0.9322 -8.2227 -22.9855 -0.1316 2.3379 -6.4404 -0.5488 2.5023 -4.9987 -2.0647 3.4395 -5.5177 -1.7346 1.7557 -2.7921 -16.0495 -9.8642 -10.8118 11.8576 -13.7422 30.7913 5.3252 -6.2803 14.4268 0.0000 0.0000 0.0000 -79.0424 16.9600 -14.5571 24.3137 -35.4942 -7.8880 -0.0000 0.0000 -22.9336 45.1390 -25.2366 -23.1918 -7.1250 0.0000 -0.0000 9.0647 -3.3971 -9.7053 0.0000 0.0000 0.0000 88.8094 5.9590 42.0472 -19.6729 30.2462 -5.3656 0.0000 0.0000 18.8295 -39.6895 -36.8864 26.4795 7.1250 -0.0000 -0.0000 2.9454 15.8273 177.9669
0.00 0.00 0.00 4.8962 39.9226 383.5220 0.0000 0.0000 0.0000 -21.4930 -13.3971 -21.7201 3.8098 11.9029 35.3895 1.7708 16.7164 -35.7822 0.0115 -0.6909 -1.8988 0.0000 0.0000 0.0000 1.4264 7.5601 -53.6353 -5.5336 -13.9606 43.0800 0.4124 -19.8764 -24.6690 -0.0414 -1.3135 3.6117 5.0834 4.1102 -3.6506 5.5277 5.5764 -3.8153 2.9775 2.8009 -1.9872 -17.7197 -17.7369 0.1925 12.5096 -25.7263 21.3341 3.9709 -12.3559 10.8218 0.0000 -0.0000 0.0000 -33.3666 32.2410 -38.3202 17.3553 -27.3238 -4.2491 -0.0000 0.0000 -31.0426 50.4287 -20.9863 -23.4301 -7.1250 0.0000 -0.0000 13.1547 -0.3648 -13.6008 0.0000 -0.0000 0.0000 65.5305 17.5427 23.1635 -15.6466 25.0391 -3.4950 0.0000 0.0000 13.3390 -34.9511 -42.4448 25.2532 7.1250 -0.0000 -0.0000 -1.0868 11.9008 -179.1605
0.00 0.00 0.00 7.8824 22.4799 394.4530 0.0000 0.0000 0.0000 -24.2811 -3.9062 -27.8766 3.7300 11.7921 35.0005 2.4812 19.3984 -41.5383 0.2498 -3.2162 -8.8813 0.0000 0.0000 0.0000 1.8146 11.1375 -76.2043 -9.7941 -17.2924 58.7980 0.3597 -16.6626 -19.8375 -0.3796 -3.9569 10.9553 7.2806 2.6492 4.8247 7.6847 4.2943 -0.6041 3.6027 2.0959 -3.4190 -14.8121 -14.1702 -4.7156 12.6600 -19.5353 13.7959 4.4640 -9.3174 7.7415 -0.0000 -0.0000 0.0000 -0.0320 4.5348 -17.9944 17.7590 -27.8475 -4.4361 -0.0000 0.0000 -7.6055 56.7162 -29.8088 -37.1344 -7.1250 0.0000 -0.0000 13.9539 -15.0823 -17.5513 -0.0000 -0.0000 0.0000 52.3222 38.9347 13.4389 -11.5954 19.1951 -1.9672 0.0000 0.0000 13.8418 -46.6508 -48.2005 38.2990 7.1250 -0.0000 -0.0000 1.6579 1.5955 178.3883
